{"title":"Bangalore Naatkal 2016 Movies DVDScr XviD AAC With Sample ☻rDX☻","uid":13445040,"size":746994642,"categoryP":"video","categoryS":"movies","magnet":"?xt=urn:btih:eb431787ac94d39bc80feddd2cb817867715f48f&amp;dn=Bangalore+Naatkal+2016+Movies+DVDScr+XviD+AAC+With+Sample+%E2%98%BBrDX%E2%98%BB&amp;tr=udp%3A%2F%2Ftracker.leechers-paradise.org%3A6969&amp;tr=udp%3A%2F%2Fzer0day.ch%3A1337&amp;tr=udp%3A%2F%2Fopen.demonii.com%3A1337&amp;tr=udp%3A%2F%2Ftracker.coppersurfer.tk%3A6969&amp;tr=udp%3A%2F%2Fexodus.desync.com%3A6969","seeders":0,"leechers":1,"uploader":"basicssom","files":2,"time":1454738595,"description":"----------------------------------------------------------------\r\nBangalore Naatkal 2016 Tamil Movies DVDScr XviD AAC Clean Audio New Source with Sample ~ ☻rDX☻\r\n\r\nSCREEN SHOTS &amp; POSTER:\r\n  \nhttp://mobileshosting.com/2016/2/BNaatkal/11.html  \nhttp://mobileshosting.com/2016/2/BNaatkal/1.html  \nhttp://mobileshosting.com/2016/2/BNaatkal/2.html  \nhttp://mobileshosting.com/2016/2/BNaatkal/3.html  \nhttp://mobileshosting.com/2016/2/BNaatkal/4.html  \nhttp://mobileshosting.com/2016/2/BNaatkal/5.html  \nhttp://mobileshosting.com/2016/2/BNaatkal/6.html  \nhttp://mobileshosting.com/2016/2/BNaatkal/7.html  \nhttp://mobileshosting.com/2016/2/BNaatkal/8.html  \nhttp://mobileshosting.com/2016/2/BNaatkal/9.html  \nhttp://mobileshosting.com/2016/2/BNaatkal/10.html\r\n\r\nFormat                                   : Matroska\r\nFormat version                           : Version 4 / Version 2\r\nFile size                                : 707 MiB\r\nDuration                                 : 2h 28mn\r\nOverall bit rate                         : 665 Kbps\r\nMovie name                               : Bangalore Naatkal 2016 Tamil Movies DVDScr XviD AAC Clean Audio New Source ☻rDX☻\r\n\r\nVideo\r\nID                                       : 1\r\nFormat                                   : AVC\r\nFormat/Info                              : Advanced Video Codec\r\nFormat profile                           :   \r\nFormat settings, CABAC                   : Yes\r\nFormat settings, ReFrames                : 4 frames\r\nCodec ID                                 : V_MPEG4/ISO/AVC\r\nDuration                                 : 2h 28mn\r\nBit rate                                 : 567 Kbps\r\nWidth                                    : 608 pixels\r\nHeight                                   : 256 pixels\r\nDisplay aspect ratio                     : 2.40:1\r\nFrame rate mode                          : Constant\r\nFrame rate                               : 25.000 fps\r\nColor space                              : YUV\r\nChroma subsampling                       : 4:2:0\r\nBit depth                                : 8 bits\r\nScan type                                : Progressive\r\nBits/(Pixel*Frame)                       : 0.146\r\nStream size                              : 591 MiB (84%)\r\nTitle                                    : ☻rDX☻\r\nWriting library                          : XviD\r\nLanguage                                 : Tamil\r\nDefault                                  : Yes\r\nForced                                   : Yes\r\n\r\nAudio\r\nID                                       : 2\r\nFormat                                   : MPEG Audio\r\nFormat version                           : Version 1\r\nFormat profile                           : Layer 3\r\nMode                                     : Joint stereo\r\nMode extension                           : MS Stereo\r\nCodec ID                                 : A_MPEG/L3\r\nCodec ID/Hint                            : MP3\r\nDuration                                 : 2h 28mn\r\nBit rate mode                            : Constant\r\nBit rate                                 : 96.0 Kbps\r\nChannel(s)                               : 2 channels\r\nSampling rate                            : 48.0 KHz\r\nCompression mode                         : Lossy\r\nStream size                              : 102 MiB (14%)\r\nTitle                                    : ☻rDX☻\r\nLanguage                                 : Tamil\r\nDefault                                  : Yes\r\nForced                                   : Yes\r\n\r\nIMDB                                      \nhttp://www.imdb.com/title/tt5328784/","torrent":{"xt":"urn:btih:eb431787ac94d39bc80feddd2cb817867715f48f","amp;dn":"Bangalore+Naatkal+2016+Movies+DVDScr+XviD+AAC+With+Sample+%E2%98%BBrDX%E2%98%BB","amp;tr":["udp%3A%2F%2Ftracker.leechers-paradise.org%3A6969","udp%3A%2F%2Fzer0day.ch%3A1337","udp%3A%2F%2Fopen.demonii.com%3A1337","udp%3A%2F%2Ftracker.coppersurfer.tk%3A6969","udp%3A%2F%2Fexodus.desync.com%3A6969"],"infoHash":"eb431787ac94d39bc80feddd2cb817867715f48f","infoHashBuffer":{"type":"Buffer","data":[235,67,23,135,172,148,211,155,200,15,237,221,44,184,23,134,119,21,244,143]},"announce":[],"urlList":[]}}